<mxfile host="app.diagrams.net" agent="Mozilla/5.0 (Windows NT 10.0; Win64; x64) AppleWebKit/537.36 (KHTML, like Gecko) Chrome/138.0.0.0 Safari/537.36 Edg/138.0.0.0" version="28.0.7">
  <diagram name="Page-1" id="tY0acgBZl7y1_lqEba-A">
    <mxGraphModel dx="1248" dy="762" grid="1" gridSize="10" guides="1" tooltips="1" connect="1" arrows="1" fold="1" page="1" pageScale="1" pageWidth="850" pageHeight="1100" math="0" shadow="0">
      <root>
        <mxCell id="0" />
        <mxCell id="1" parent="0" />
        <mxCell id="6jsAId-AfkdS_IAZTBg5-6" style="edgeStyle=orthogonalEdgeStyle;rounded=0;orthogonalLoop=1;jettySize=auto;html=1;exitX=1;exitY=0.5;exitDx=0;exitDy=0;exitPerimeter=0;entryX=0;entryY=0.25;entryDx=0;entryDy=0;" edge="1" parent="1" source="TKdbyDsrvAXu3UR6191E-2" target="6jsAId-AfkdS_IAZTBg5-3">
          <mxGeometry relative="1" as="geometry" />
        </mxCell>
        <mxCell id="TKdbyDsrvAXu3UR6191E-2" value="" style="shape=mxgraph.cisco.people.androgenous_person;sketch=0;html=1;pointerEvents=1;dashed=0;fillColor=#036897;strokeColor=#ffffff;strokeWidth=2;verticalLabelPosition=bottom;verticalAlign=top;align=center;outlineConnect=0;" parent="1" vertex="1">
          <mxGeometry x="70" y="70" width="69" height="82" as="geometry" />
        </mxCell>
        <mxCell id="6jsAId-AfkdS_IAZTBg5-14" style="edgeStyle=orthogonalEdgeStyle;rounded=0;orthogonalLoop=1;jettySize=auto;html=1;exitX=1;exitY=0.5;exitDx=0;exitDy=0;exitPerimeter=0;" edge="1" parent="1" source="6jsAId-AfkdS_IAZTBg5-1" target="6jsAId-AfkdS_IAZTBg5-5">
          <mxGeometry relative="1" as="geometry">
            <Array as="points">
              <mxPoint x="628" y="111" />
              <mxPoint x="628" y="110" />
            </Array>
          </mxGeometry>
        </mxCell>
        <mxCell id="6jsAId-AfkdS_IAZTBg5-1" value="" style="shape=mxgraph.cisco.people.androgenous_person;sketch=0;html=1;pointerEvents=1;dashed=0;fillColor=#036897;strokeColor=#ffffff;strokeWidth=2;verticalLabelPosition=bottom;verticalAlign=top;align=center;outlineConnect=0;flipH=1;" vertex="1" parent="1">
          <mxGeometry x="700" y="70" width="69" height="82" as="geometry" />
        </mxCell>
        <mxCell id="6jsAId-AfkdS_IAZTBg5-2" value="Local DB&lt;br&gt;SQLite" style="rounded=1;whiteSpace=wrap;html=1;arcSize=18;" vertex="1" parent="1">
          <mxGeometry x="365" y="200" width="120" height="60" as="geometry" />
        </mxCell>
        <mxCell id="6jsAId-AfkdS_IAZTBg5-10" style="edgeStyle=orthogonalEdgeStyle;rounded=0;orthogonalLoop=1;jettySize=auto;html=1;exitX=1;exitY=0.25;exitDx=0;exitDy=0;" edge="1" parent="1" source="6jsAId-AfkdS_IAZTBg5-3" target="6jsAId-AfkdS_IAZTBg5-2">
          <mxGeometry relative="1" as="geometry">
            <Array as="points">
              <mxPoint x="400" y="115" />
            </Array>
          </mxGeometry>
        </mxCell>
        <mxCell id="6jsAId-AfkdS_IAZTBg5-11" style="edgeStyle=orthogonalEdgeStyle;rounded=0;orthogonalLoop=1;jettySize=auto;html=1;exitX=1;exitY=0.75;exitDx=0;exitDy=0;startArrow=classic;startFill=1;endArrow=none;endFill=0;" edge="1" parent="1" source="6jsAId-AfkdS_IAZTBg5-3" target="6jsAId-AfkdS_IAZTBg5-2">
          <mxGeometry relative="1" as="geometry">
            <Array as="points">
              <mxPoint x="380" y="140" />
            </Array>
          </mxGeometry>
        </mxCell>
        <mxCell id="6jsAId-AfkdS_IAZTBg5-15" style="edgeStyle=orthogonalEdgeStyle;rounded=0;orthogonalLoop=1;jettySize=auto;html=1;exitX=0;exitY=0.75;exitDx=0;exitDy=0;" edge="1" parent="1" source="6jsAId-AfkdS_IAZTBg5-3" target="TKdbyDsrvAXu3UR6191E-2">
          <mxGeometry relative="1" as="geometry">
            <Array as="points">
              <mxPoint x="180" y="140" />
              <mxPoint x="180" y="140" />
            </Array>
          </mxGeometry>
        </mxCell>
        <mxCell id="6jsAId-AfkdS_IAZTBg5-3" value="Wireshark&lt;br&gt;Traffic Monitoring" style="rounded=1;whiteSpace=wrap;html=1;" vertex="1" parent="1">
          <mxGeometry x="295" y="102" width="70" height="50" as="geometry" />
        </mxCell>
        <mxCell id="6jsAId-AfkdS_IAZTBg5-9" style="edgeStyle=orthogonalEdgeStyle;rounded=0;orthogonalLoop=1;jettySize=auto;html=1;exitX=0;exitY=0.25;exitDx=0;exitDy=0;" edge="1" parent="1" source="6jsAId-AfkdS_IAZTBg5-5" target="6jsAId-AfkdS_IAZTBg5-2">
          <mxGeometry relative="1" as="geometry">
            <Array as="points">
              <mxPoint x="450" y="115" />
            </Array>
          </mxGeometry>
        </mxCell>
        <mxCell id="6jsAId-AfkdS_IAZTBg5-12" style="edgeStyle=orthogonalEdgeStyle;rounded=0;orthogonalLoop=1;jettySize=auto;html=1;exitX=0;exitY=0.75;exitDx=0;exitDy=0;startArrow=classic;startFill=1;endArrow=none;endFill=0;" edge="1" parent="1" source="6jsAId-AfkdS_IAZTBg5-5" target="6jsAId-AfkdS_IAZTBg5-2">
          <mxGeometry relative="1" as="geometry">
            <Array as="points">
              <mxPoint x="470" y="140" />
            </Array>
          </mxGeometry>
        </mxCell>
        <mxCell id="6jsAId-AfkdS_IAZTBg5-13" style="edgeStyle=orthogonalEdgeStyle;rounded=0;orthogonalLoop=1;jettySize=auto;html=1;exitX=1;exitY=0.75;exitDx=0;exitDy=0;" edge="1" parent="1" source="6jsAId-AfkdS_IAZTBg5-5" target="6jsAId-AfkdS_IAZTBg5-1">
          <mxGeometry relative="1" as="geometry">
            <Array as="points">
              <mxPoint x="670" y="140" />
              <mxPoint x="670" y="140" />
            </Array>
          </mxGeometry>
        </mxCell>
        <mxCell id="6jsAId-AfkdS_IAZTBg5-5" value="Wireshark&lt;br&gt;Traffic Monitoring" style="rounded=1;whiteSpace=wrap;html=1;" vertex="1" parent="1">
          <mxGeometry x="485" y="102" width="70" height="50" as="geometry" />
        </mxCell>
      </root>
    </mxGraphModel>
  </diagram>
</mxfile>
